<svg width="72" height="72" viewBox="0 0 72 72" fill="none" xmlns="http://www.w3.org/2000/svg">
<path d="M55.5628 27.4104C55.2422 27.6535 49.582 30.7696 49.582 37.6985C49.582 45.7129 56.7844 48.5482 57 48.6184C56.9668 48.7912 55.8558 52.5013 53.2026 56.2817C50.8368 59.6085 48.3659 62.9298 44.6072 62.9298C40.8484 62.9298 39.8811 60.7966 35.5419 60.7966C31.3134 60.7966 29.8099 63 26.3717 63C22.9335 63 20.5346 59.9217 17.7763 56.1413C14.5814 51.7021 12 44.8056 12 38.2601C12 27.7615 18.9869 22.1935 25.8632 22.1935C29.5169 22.1935 32.5626 24.5374 34.8565 24.5374C37.0399 24.5374 40.4449 22.0531 44.6016 22.0531C46.177 22.0531 51.8372 22.1935 55.5628 27.4104ZM42.6283 17.6085C44.3474 15.6157 45.5634 12.8506 45.5634 10.0855C45.5634 9.70207 45.5303 9.31323 45.4584 9C42.6615 9.10261 39.3339 10.82 37.3274 13.0936C35.752 14.8434 34.2817 17.6085 34.2817 20.4113C34.2817 20.8326 34.3535 21.2538 34.3867 21.3888C34.5636 21.4212 34.851 21.459 35.1384 21.459C37.648 21.459 40.8042 19.8173 42.6283 17.6085Z" fill="black"/>
</svg>
