<svg width="26" height="30" viewBox="0 0 26 30" fill="none" xmlns="http://www.w3.org/2000/svg">
<path d="M24.8681 10.228C24.69 10.363 21.5454 12.0942 21.5454 15.9436C21.5454 20.396 25.5467 21.9712 25.6665 22.0102C25.6481 22.1062 25.0308 24.1674 23.5568 26.2676C22.2425 28.1158 20.8698 29.961 18.7816 29.961C16.6934 29.961 16.156 28.7759 13.7454 28.7759C11.3961 28.7759 10.5609 30 8.65078 30C6.7407 30 5.40794 28.2898 3.87557 26.1896C2.1006 23.7234 0.666504 19.892 0.666504 16.2556C0.666504 10.423 4.54809 7.32973 8.36826 7.32973C10.3981 7.32973 12.0902 8.63186 13.3646 8.63186C14.5776 8.63186 16.4692 7.25173 18.7785 7.25173C19.6537 7.25173 22.7983 7.32973 24.8681 10.228ZM17.6822 4.78248C18.6373 3.67537 19.3129 2.13921 19.3129 0.60306C19.3129 0.390039 19.2944 0.174017 19.2545 0C17.7007 0.0570057 15.852 1.0111 14.7373 2.27423C13.8621 3.24632 13.0452 4.78248 13.0452 6.33963C13.0452 6.57366 13.0851 6.80768 13.1036 6.88269C13.2018 6.90069 13.3615 6.92169 13.5212 6.92169C14.9154 6.92169 16.6688 6.0096 17.6822 4.78248Z" fill="white"/>
</svg>
