<svg width="16" height="16" viewBox="0 0 16 16" fill="none" xmlns="http://www.w3.org/2000/svg">
<path fill-rule="evenodd" clip-rule="evenodd" d="M3.83333 8C3.83333 5.69881 5.69881 3.83333 8 3.83333C8.67116 3.83333 9.30345 3.99152 9.8634 4.27204C10.1926 4.43696 10.5931 4.30379 10.7581 3.9746C10.923 3.64541 10.7898 3.24485 10.4606 3.07994C9.71947 2.70865 8.88314 2.5 8 2.5C4.96243 2.5 2.5 4.96243 2.5 8C2.5 11.0376 4.96243 13.5 8 13.5C11.0376 13.5 13.5 11.0376 13.5 8C13.5 7.63181 13.2015 7.33333 12.8333 7.33333C12.4651 7.33333 12.1667 7.63181 12.1667 8C12.1667 10.3012 10.3012 12.1667 8 12.1667C5.69881 12.1667 3.83333 10.3012 3.83333 8ZM13.4714 4.80474C13.7318 4.54439 13.7318 4.12228 13.4714 3.86193C13.2111 3.60158 12.7889 3.60158 12.5286 3.86193L8 8.39052L6.13807 6.5286C5.87772 6.26825 5.45561 6.26825 5.19526 6.5286C4.93491 6.78895 4.93491 7.21106 5.19526 7.4714L7.5286 9.80474C7.78895 10.0651 8.21106 10.0651 8.4714 9.80474L13.4714 4.80474Z" fill="#FF8300"/>
</svg>
