<svg width="24" height="24" viewBox="0 0 24 24" fill="none" xmlns="http://www.w3.org/2000/svg">
<path fill-rule="evenodd" clip-rule="evenodd" d="M6.21967 8.28033C5.92678 7.98744 5.92678 7.51256 6.21967 7.21967C6.51256 6.92678 6.98744 6.92678 7.28033 7.21967L11.5001 11.4395L15.7199 7.21967C16.0128 6.92678 16.4877 6.92678 16.7806 7.21967C17.0734 7.51256 17.0734 7.98744 16.7806 8.28033L12.8109 12.25L16.7806 16.2197C17.0734 16.5126 17.0734 16.9874 16.7806 17.2803C16.4877 17.5732 16.0128 17.5732 15.7199 17.2803L11.5001 13.0605L7.28033 17.2803C6.98744 17.5732 6.51256 17.5732 6.21967 17.2803C5.92678 16.9874 5.92678 16.5126 6.21967 16.2197L10.1893 12.25L6.21967 8.28033Z" fill="#959595"/>
</svg>
