<svg width="16" height="16" viewBox="0 0 16 16" fill="none" xmlns="http://www.w3.org/2000/svg">
<path fill-rule="evenodd" clip-rule="evenodd" d="M4.14645 5.51957C3.95118 5.32431 3.95118 5.00772 4.14645 4.81246C4.34171 4.6172 4.65829 4.6172 4.85355 4.81246L7.66674 7.62565L10.4799 4.81246C10.6752 4.6172 10.9918 4.6172 11.187 4.81246C11.3823 5.00772 11.3823 5.32431 11.187 5.51957L8.54059 8.16602L11.187 10.8125C11.3823 11.0077 11.3823 11.3243 11.187 11.5196C10.9918 11.7148 10.6752 11.7148 10.4799 11.5196L7.66674 8.70638L4.85355 11.5196C4.65829 11.7148 4.34171 11.7148 4.14645 11.5196C3.95118 11.3243 3.95118 11.0077 4.14645 10.8125L6.79289 8.16602L4.14645 5.51957Z" fill="white"/>
</svg>
