<svg width="72" height="72" viewBox="0 0 72 72" fill="none" xmlns="http://www.w3.org/2000/svg">
<path d="M25.3033 54.0518V59.0984C25.3033 60.5318 24.592 61.2967 23.2995 61.2967C21.9997 61.2967 21.2842 60.5097 21.2842 59.0372V54.0573H19.496V59.0984C19.496 61.5787 20.8738 63.0001 23.2759 63.0001C25.7008 63.0001 27.0914 61.5515 27.0914 59.0256V54.0518H25.3033ZM31.8822 54.0518L27.9985 62.8627H29.8238L30.5735 61.1563L30.6271 61.0284H34.6618L35.4531 62.8627H37.328L33.4804 54.1039L33.4458 54.0518L31.8822 54.0518ZM42.5144 54.0518L40.5131 60.1143L38.565 54.0563H36.662L39.7339 62.8682H41.2147L43.22 57.0795L45.2237 62.8682H46.7171L49.7814 54.0563H47.927L45.9749 60.1143L43.9731 54.0518H42.5144ZM60.0134 54.0518V62.8552H61.778V54.0518H60.0134ZM9.40039 54.0523V62.8677H11.1891V59.2874H15.2277V62.8677H17.0169V54.0523H15.2277V57.6086H11.1891V54.0523H9.40039ZM51.2235 54.0583V62.8617H57.8808V61.2566H52.9881V59.0738H56.2415V57.4681H52.9881V55.6634H57.7103V54.0583H51.2235ZM32.6399 56.2827L33.9151 59.2342H33.9106L33.9974 59.4378H31.2921L31.3778 59.2342L32.6399 56.2827Z" fill="#232527"/>
<path d="M31.6738 9.00011C30.9643 9.06287 29.0471 9.49926 29.0471 9.49926C24.7258 10.6162 23.7036 14.5377 23.7036 14.5377C23.4926 15.1971 23.3967 15.8729 23.3685 16.5096V17.3762C23.4259 18.7151 23.7236 19.7148 23.7236 19.7148C25.1671 26.1154 32.2644 36.6324 33.7897 38.8417C33.8979 38.949 33.9846 38.9103 33.9846 38.9103C34.1492 38.8648 34.1364 38.7069 34.1364 38.7069L34.1395 38.7077C36.4889 15.2247 31.6738 9.00011 31.6738 9.00011ZM39.4367 9.00011C39.4367 9.00011 34.6006 15.228 36.9518 38.7247H36.9549C36.9731 38.8738 37.0789 38.9049 37.0789 38.9049C37.2363 38.9658 37.3169 38.8147 37.3169 38.8147L37.3177 38.8162C38.8822 36.5505 45.939 26.0907 47.3761 19.7147C47.3761 19.7147 48.1553 16.6287 47.4031 14.5376C47.4031 14.5376 46.3348 10.5554 42.008 9.503C42.008 9.503 40.761 9.18657 39.4367 9.00011ZM17.13 16.0498C17.13 16.0498 13.0126 19.9577 12.808 24.1008H12.8096V24.7286C12.8127 24.7758 12.8151 24.8237 12.8181 24.8718C12.9955 28.2126 15.5087 30.1899 15.5087 30.1899C19.5581 34.1364 29.3631 39.1192 31.6415 40.2498C31.6735 40.2617 31.7912 40.3002 31.8603 40.2128C31.8603 40.2128 31.8963 40.1855 31.9127 40.1365V40.0324C31.911 40.0265 31.9079 40.0205 31.9049 40.014C25.6654 26.3833 17.13 16.0498 17.13 16.0498ZM53.9704 16.0498C53.9704 16.0498 45.4602 26.3509 39.2233 39.954L39.2257 39.9532C39.2257 39.9532 39.1521 40.1109 39.2712 40.2128C39.2712 40.2128 39.3067 40.2396 39.3559 40.2505H39.4422C39.4577 40.246 39.4743 40.2401 39.4907 40.2289C41.831 39.0674 51.5602 34.1189 55.5904 30.1905C55.5904 30.1905 58.1427 28.1409 58.2764 24.8501C58.5711 20.2796 53.9704 16.0498 53.9704 16.0498ZM61.6301 29.5821C61.6301 29.5821 47.7558 37.0278 40.5821 41.8666L40.5845 41.8689C40.5845 41.8689 40.4544 41.9542 40.4998 42.1069C40.4998 42.1069 40.5679 42.2302 40.667 42.2302C43.2365 42.2347 52.9596 42.2464 53.2033 42.2009C53.2033 42.2009 54.4606 42.1507 56.0141 41.5539C56.0141 41.5539 59.4726 40.4543 61.269 36.5277C61.269 36.5277 62.0898 34.8859 62.1017 32.5793V32.4815C62.0957 31.5919 61.9703 30.6072 61.6301 29.5821ZM9.46646 29.6169C8.2041 33.5248 9.90355 36.6737 9.90629 36.6788C11.6773 40.4209 15.058 41.5547 15.058 41.5547C16.6188 42.196 18.1799 42.2403 18.1799 42.2403C18.4237 42.2849 27.8878 42.2448 30.4236 42.2328C30.5309 42.232 30.59 42.1242 30.59 42.1242C30.5974 42.1122 30.604 42.1003 30.6069 42.0894V41.9916C30.5859 41.9262 30.5299 41.88 30.5299 41.88L30.5316 41.8792C23.3615 37.042 9.46646 29.6169 9.46646 29.6169ZM30.134 43.4342L13.8124 44.0065C15.5824 47.1618 18.5633 49.614 21.6685 48.8609C23.8115 48.3252 28.6661 44.9389 30.2688 43.7947L30.2634 43.7902C30.388 43.6783 30.3435 43.5884 30.3435 43.5884C30.3025 43.4419 30.134 43.442 30.134 43.442L30.134 43.4342ZM40.9441 43.4461L40.9425 43.4521C40.9425 43.4521 40.7992 43.4703 40.7592 43.5776C40.7592 43.5776 40.7244 43.7243 40.8208 43.7971L40.8192 43.7986C42.3818 44.9192 47.1188 48.231 49.4009 48.874C49.4009 48.874 49.7466 48.9916 50.326 49.0127H50.6742C52.2032 48.959 54.8667 48.1735 57.2871 44.015L40.9441 43.4461Z" fill="#CF0A2C"/>
</svg>
