<svg width="198" height="32" viewBox="0 0 198 32" fill="none" xmlns="http://www.w3.org/2000/svg">
<path d="M16.9221 7.23828C18.3231 7.23828 19.5255 7.35966 20.4853 7.60242C21.445 7.83414 22.2282 8.23138 22.8129 8.73897C23.3976 9.25759 23.8057 9.91966 24.0705 10.7252C24.3242 11.5307 24.4456 12.5128 24.4456 13.6493V30.8521C24.4456 31.3155 24.2139 31.5472 23.7506 31.5472H20.6618C20.1984 31.5472 19.9668 31.3155 19.9668 30.8521V24.5734H8.08588C6.65179 24.5734 5.44935 24.4631 4.51168 24.2203C3.55194 23.9886 2.77973 23.6245 2.21713 23.1059C1.63246 22.5872 1.22429 21.9252 0.959539 21.1197C0.705815 20.3141 0.584473 19.3321 0.584473 18.1955V13.6603C0.584473 12.5238 0.705815 11.5528 0.959539 10.7362C1.21326 9.93069 1.63246 9.25759 2.21713 8.75C2.80179 8.23138 3.56297 7.85621 4.51168 7.61345C5.47141 7.38173 6.65179 7.24931 8.08588 7.24931L16.9221 7.23828ZM5.09634 17.3128C5.09634 17.9859 5.1515 18.5376 5.25078 18.979C5.3611 19.4203 5.54863 19.7735 5.80236 20.0493C6.06711 20.3252 6.42013 20.5128 6.86138 20.6231C7.30264 20.7335 7.86524 20.7776 8.52713 20.7776H19.9557V14.499C19.9557 13.8479 19.9006 13.2962 19.8013 12.8438C19.691 12.4024 19.5035 12.0383 19.2497 11.7735C18.985 11.5086 18.632 11.3321 18.1907 11.1997C17.7495 11.0893 17.1758 11.0341 16.4919 11.0341H8.53817C7.86525 11.0341 7.31367 11.0893 6.87241 11.1997C6.43115 11.31 6.07815 11.5086 5.8134 11.7735C5.54864 12.0383 5.37214 12.4024 5.26182 12.8438C5.15151 13.3072 5.10738 13.8479 5.10738 14.499V17.3128H5.09634Z" fill="#FF8300"/>
<path d="M42.3497 7.23828C43.7507 7.23828 44.9531 7.35966 45.9128 7.60242C46.8726 7.83414 47.6558 8.23138 48.2405 8.73897C48.8251 9.25759 49.2333 9.91966 49.4981 10.7252C49.7518 11.5307 49.8732 12.5128 49.8732 13.6493V22.0355C49.8732 22.5321 49.829 22.9514 49.7628 23.2935C49.6966 23.6135 49.5643 23.8783 49.3878 24.0769C49.2113 24.2755 48.9686 24.3969 48.6818 24.4631C48.3949 24.5293 48.0088 24.5735 47.5455 24.5735H32.5206C31.583 24.5735 30.8218 24.4852 30.193 24.3086C29.5642 24.1321 29.0788 23.8673 28.6927 23.5031C28.3176 23.139 28.0529 22.6866 27.8874 22.1128C27.733 21.539 27.6558 20.8769 27.6558 20.0935V18.5707C27.6558 17.9197 27.744 17.3348 27.8874 16.8162C28.0419 16.2976 28.3176 15.8672 28.6927 15.5031C29.0678 15.139 29.5752 14.8741 30.193 14.6976C30.8218 14.521 31.583 14.4328 32.5206 14.4328H45.3613V13.8369C45.3613 13.3404 45.3061 12.899 45.2068 12.5459C45.0965 12.1817 44.931 11.9059 44.6663 11.6852C44.4126 11.4645 44.0706 11.299 43.6183 11.1997C43.177 11.0893 42.6034 11.0452 41.9195 11.0452H28.7368C28.3618 11.0452 28.1632 10.8466 28.1632 10.4714V7.82311C28.1632 7.44794 28.3618 7.24931 28.7368 7.24931H42.3717V7.23828H42.3497ZM44.4346 21.0976C44.7656 21.0976 45.0083 21.0093 45.1406 20.8659C45.273 20.7224 45.3502 20.4355 45.3502 20.0272V17.2576H33.7893C33.1384 17.2576 32.6751 17.379 32.4103 17.6438C32.1456 17.9086 32.0242 18.2838 32.0242 18.8024V19.4755C32.0242 20.0493 32.1456 20.4686 32.4103 20.7335C32.6751 20.9983 33.1384 21.1197 33.7893 21.1197H44.4236V21.0976H44.4346Z" fill="#FF8300"/>
<path d="M69.4983 7.23828C69.8733 7.23828 70.0719 7.4369 70.0719 7.81207V10.4603C70.0719 10.8355 69.8733 11.0341 69.4983 11.0341H61.1033C60.4304 11.0341 59.8788 11.0893 59.4376 11.1997C58.9963 11.31 58.6433 11.5086 58.3785 11.7735C58.1138 12.0383 57.9373 12.4024 57.827 12.8438C57.7167 13.3072 57.6725 13.8479 57.6725 14.499V23.8672C57.6725 24.3307 57.4408 24.5624 56.9775 24.5624H53.8887C53.4033 24.5624 53.1606 24.3307 53.1606 23.8672V13.6493C53.1606 12.5128 53.282 11.5417 53.5357 10.7252C53.7894 9.91966 54.2086 9.24655 54.7933 8.73897C55.378 8.23138 56.1391 7.84518 57.0878 7.60242C58.0476 7.37069 59.2279 7.23828 60.662 7.23828H69.4983Z" fill="#FF8300"/>
<path d="M86.5968 7.23828C87.9978 7.23828 89.2002 7.35966 90.1599 7.60242C91.1197 7.83414 91.9029 8.23138 92.4876 8.73897C93.0722 9.25759 93.4804 9.91966 93.7452 10.7252C93.9989 11.5307 94.1202 12.5128 94.1202 13.6493V22.0355C94.1202 22.5321 94.0761 22.9514 94.0099 23.2935C93.9437 23.6135 93.8114 23.8783 93.6349 24.0769C93.4583 24.2755 93.2156 24.3969 92.9288 24.4631C92.642 24.5293 92.2559 24.5735 91.7926 24.5735H76.7677C75.83 24.5735 75.0689 24.4852 74.4401 24.3086C73.8113 24.1321 73.3259 23.8673 72.9398 23.5031C72.5647 23.139 72.3 22.6866 72.1345 22.1128C71.9801 21.539 71.9028 20.8769 71.9028 20.0935V18.5707C71.9028 17.9197 71.9911 17.3348 72.1345 16.8162C72.289 16.2976 72.5647 15.8672 72.9398 15.5031C73.3149 15.139 73.8223 14.8741 74.4401 14.6976C75.0689 14.521 75.83 14.4328 76.7677 14.4328H89.6084V13.8369C89.6084 13.3404 89.5532 12.899 89.4539 12.5459C89.3436 12.1817 89.1781 11.9059 88.9134 11.6852C88.6597 11.4645 88.3177 11.299 87.8654 11.1997C87.4241 11.0893 86.8505 11.0452 86.1665 11.0452H72.9839C72.6089 11.0452 72.4103 10.8466 72.4103 10.4714V7.82311C72.4103 7.44794 72.6089 7.24931 72.9839 7.24931H86.6188V7.23828H86.5968ZM88.6817 21.0976C89.0127 21.0976 89.2553 21.0093 89.3877 20.8659C89.5311 20.7114 89.5973 20.4355 89.5973 20.0272V17.2576H78.0363C77.3855 17.2576 76.9222 17.379 76.6574 17.6438C76.3926 17.9086 76.2713 18.2838 76.2713 18.8024V19.4755C76.2713 20.0493 76.3926 20.4686 76.6574 20.7335C76.9222 20.9983 77.3855 21.1197 78.0363 21.1197H88.6707V21.0976H88.6817Z" fill="#FF8300"/>
<path d="M113.955 7.23828C115.356 7.23828 116.559 7.35966 117.518 7.60242C118.478 7.83414 119.261 8.23138 119.846 8.73897C120.431 9.25759 120.839 9.91966 121.104 10.7252C121.357 11.5307 121.479 12.5128 121.479 13.6493V23.8672C121.479 24.3307 121.247 24.5624 120.784 24.5624H117.695C117.231 24.5624 117 24.3307 117 23.8672V14.7197C117 14.0686 116.956 13.5169 116.878 13.0645C116.79 12.6231 116.625 12.259 116.393 11.9941C116.161 11.7293 115.819 11.5528 115.4 11.4203C114.981 11.31 114.429 11.2548 113.757 11.2548H105.362C104.689 11.2548 104.137 11.31 103.696 11.4203C103.255 11.5307 102.902 11.7293 102.637 11.9941C102.372 12.259 102.196 12.6231 102.085 13.0645C101.975 13.5279 101.931 14.0686 101.931 14.7197V23.8672C101.931 24.3307 101.699 24.5624 101.236 24.5624H98.147C97.6616 24.5624 97.4189 24.3307 97.4189 23.8672V13.6493C97.4189 12.5128 97.5403 11.5417 97.794 10.7252C98.0477 9.91966 98.4669 9.24655 99.0516 8.73897C99.6363 8.22035 100.397 7.84518 101.346 7.60242C102.306 7.37069 103.486 7.23828 104.92 7.23828H113.955Z" fill="#FF8300"/>
<path d="M127.501 7.23799V3.07799C127.501 2.61454 127.733 2.38281 128.196 2.38281H131.318C131.782 2.38281 132.013 2.61454 132.013 3.07799V7.23799H137.54C137.915 7.23799 138.114 7.43661 138.114 7.81178V10.4049C138.114 10.7801 137.915 10.9787 137.54 10.9787H132.013V18.3056C132.013 19.1883 132.19 19.8394 132.554 20.2366C132.918 20.6449 133.613 20.8545 134.672 20.8545H137.739C138.114 20.8545 138.312 21.0532 138.312 21.4283V24.0214C138.312 24.3966 138.114 24.5952 137.739 24.5952H133.922C132.653 24.5952 131.627 24.4849 130.8 24.2421C129.973 23.9994 129.322 23.6463 128.825 23.1387C128.329 22.6311 127.987 21.9801 127.799 21.1745C127.601 20.3801 127.524 19.4201 127.524 18.3056V10.9787H124.501C124.126 10.9787 123.927 10.7801 123.927 10.4049V7.81178C123.927 7.43661 124.126 7.23799 124.501 7.23799H127.501Z" fill="#FF8300"/>
<path d="M144.667 0.837891C145.13 0.837891 145.361 1.06962 145.361 1.53306V4.52341C145.361 5.00893 145.13 5.25168 144.667 5.25168H141.578C141.092 5.25168 140.85 5.01996 140.85 4.52341V1.53306C140.85 1.06962 141.081 0.837891 141.578 0.837891H144.667ZM144.667 7.23789C145.13 7.23789 145.361 7.46962 145.361 7.96617V23.8669C145.361 24.3303 145.13 24.562 144.667 24.562H141.578C141.114 24.562 140.883 24.3303 140.883 23.8669V7.9772C140.883 7.49169 141.114 7.24893 141.578 7.24893H144.667V7.23789Z" fill="#FF8300"/>
<path d="M153.172 0.904297C153.635 0.904297 153.867 1.13602 153.867 1.59947V23.8781C153.867 24.3415 153.635 24.5733 153.172 24.5733H150.083C149.62 24.5733 149.388 24.3415 149.388 23.8781V1.59947C149.388 1.13602 149.62 0.904297 150.083 0.904297H153.172Z" fill="#FF8300"/>
<path d="M161.699 0.837891C162.163 0.837891 162.394 1.06962 162.394 1.53306V4.52341C162.394 5.00893 162.163 5.25168 161.699 5.25168H158.61C158.125 5.25168 157.882 5.01996 157.882 4.52341V1.53306C157.882 1.06962 158.114 0.837891 158.61 0.837891H161.699ZM161.699 7.23789C162.163 7.23789 162.394 7.46962 162.394 7.96617V23.8669C162.394 24.3303 162.163 24.562 161.699 24.562H158.61C158.147 24.562 157.915 24.3303 157.915 23.8669V7.9772C157.915 7.49169 158.147 7.24893 158.61 7.24893H161.699V7.23789Z" fill="#FF8300"/>
<path d="M193.79 7.66902V20.778C193.79 21.3076 193.36 21.738 192.83 21.738H172.984C172.455 21.738 172.025 21.3076 172.025 20.778V4.08281H187.59L189.962 0.882812H172.025H171.385H168.627C168.627 0.893847 168.627 0.915917 168.627 0.926951V20.778C168.627 23.1725 170.58 25.1366 172.984 25.1366H192.83C195.224 25.1366 197.187 23.1835 197.187 20.778V2.93523L193.79 7.66902Z" fill="#FF8300"/>
<path d="M182.902 13.0766L181.501 11.6752L178.456 8.68487C178.401 8.6297 178.335 8.5966 178.257 8.5966C178.18 8.5966 178.103 8.6297 178.059 8.68487L175.775 11.0131C175.72 11.0683 175.687 11.1345 175.687 11.2118C175.687 11.278 175.72 11.3552 175.775 11.4104L183.012 18.5276C183.067 18.5828 183.133 18.6159 183.21 18.6159C183.299 18.6159 183.376 18.5718 183.431 18.5166L196.978 0.894531H192.367L184.303 11.289L182.902 13.0766Z" fill="#FF8300"/>
</svg>
