<svg width="34" height="26" viewBox="0 0 34 26" fill="none" xmlns="http://www.w3.org/2000/svg">
<g clip-path="url(#clip0_180_3988)">
<path d="M6.37492 25.8307V24.1126C6.37492 23.4554 5.9746 23.0251 5.28739 23.0251C4.94378 23.0251 4.57015 23.1385 4.31327 23.5121C4.11311 23.1986 3.82622 23.0251 3.39587 23.0251C3.10898 23.0251 2.82208 23.1118 2.59523 23.4254V23.0818H1.99475V25.8307H2.59523V24.3128C2.59523 23.8257 2.8521 23.5955 3.25242 23.5955C3.65274 23.5955 3.8529 23.8524 3.8529 24.3128V25.8307H4.45339V24.3128C4.45339 23.8257 4.74028 23.5955 5.11058 23.5955C5.5109 23.5955 5.71106 23.8524 5.71106 24.3128V25.8307H6.37492ZM15.2821 23.0818H14.3079V22.2511H13.7075V23.0818H13.1637V23.6256H13.7075V24.8866C13.7075 25.5171 13.9643 25.8874 14.6515 25.8874C14.9084 25.8874 15.1953 25.8006 15.3955 25.6872L15.222 25.1701C15.0485 25.2836 14.8484 25.3136 14.7049 25.3136C14.418 25.3136 14.3046 25.1401 14.3046 24.8565V23.6256H15.2787V23.0818H15.2821ZM20.3795 23.0217C20.0359 23.0217 19.8057 23.1952 19.6622 23.4221V23.0785H19.0617V25.8273H19.6622V24.2794C19.6622 23.8224 19.8624 23.5622 20.236 23.5622C20.3494 23.5622 20.4929 23.5922 20.6097 23.6189L20.7831 23.0451C20.663 23.0217 20.4929 23.0217 20.3795 23.0217ZM12.6766 23.3086C12.3897 23.1085 11.9894 23.0217 11.5591 23.0217C10.8719 23.0217 10.4148 23.3654 10.4148 23.9091C10.4148 24.3662 10.7584 24.6264 11.3589 24.7098L11.6458 24.7398C11.9594 24.7965 12.1329 24.8832 12.1329 25.0267C12.1329 25.2268 11.9027 25.3703 11.5024 25.3703C11.102 25.3703 10.7851 25.2268 10.585 25.0834L10.2981 25.5404C10.6116 25.7706 11.042 25.884 11.4723 25.884C12.273 25.884 12.7333 25.5104 12.7333 24.9967C12.7333 24.5096 12.3597 24.2527 11.7893 24.166L11.5024 24.136C11.2455 24.1059 11.0453 24.0492 11.0453 23.8791C11.0453 23.6789 11.2455 23.5655 11.5624 23.5655C11.906 23.5655 12.2496 23.709 12.4231 23.7957L12.6766 23.3086ZM28.6528 23.0217C28.3091 23.0217 28.079 23.1952 27.9355 23.4221V23.0785H27.335V25.8273H27.9355V24.2794C27.9355 23.8224 28.1357 23.5622 28.5093 23.5622C28.6227 23.5622 28.7662 23.5922 28.8829 23.6189L29.0564 23.0518C28.9397 23.0217 28.7695 23.0217 28.6528 23.0217ZM20.9799 24.4562C20.9799 25.2869 21.5537 25.8874 22.4411 25.8874C22.8414 25.8874 23.1283 25.8006 23.4152 25.5738L23.1283 25.0867C22.8981 25.2602 22.6713 25.3436 22.4111 25.3436C21.924 25.3436 21.5804 25 21.5804 24.4562C21.5804 23.9391 21.924 23.5955 22.4111 23.5689C22.668 23.5689 22.8981 23.6556 23.1283 23.8257L23.4152 23.3387C23.1283 23.1085 22.8414 23.0251 22.4411 23.0251C21.5537 23.0217 20.9799 23.6256 20.9799 24.4562ZM26.5344 24.4562V23.0818H25.9339V23.4254C25.7338 23.1685 25.4469 23.0251 25.0732 23.0251C24.2993 23.0251 23.6988 23.6256 23.6988 24.4562C23.6988 25.2869 24.2993 25.8874 25.0732 25.8874C25.4735 25.8874 25.7604 25.7439 25.9339 25.487V25.8307H26.5344V24.4562ZM24.3293 24.4562C24.3293 23.9692 24.6429 23.5689 25.16 23.5689C25.647 23.5689 25.9906 23.9425 25.9906 24.4562C25.9906 24.9433 25.647 25.3436 25.16 25.3436C24.6462 25.3136 24.3293 24.9399 24.3293 24.4562ZM17.1435 23.0217C16.3429 23.0217 15.7691 23.5955 15.7691 24.4529C15.7691 25.3136 16.3429 25.884 17.1736 25.884C17.5739 25.884 17.9742 25.7706 18.2911 25.5104L18.0042 25.0801C17.774 25.2535 17.4872 25.367 17.2036 25.367C16.83 25.367 16.4597 25.1935 16.3729 24.7098H18.4046C18.4046 24.623 18.4046 24.5663 18.4046 24.4796C18.4312 23.5955 17.9142 23.0217 17.1435 23.0217ZM17.1435 23.5388C17.5172 23.5388 17.774 23.769 17.8308 24.196H16.3996C16.4563 23.8257 16.7132 23.5388 17.1435 23.5388ZM32.0621 24.4562V21.9943H31.4617V23.4254C31.2615 23.1685 30.9746 23.0251 30.601 23.0251C29.827 23.0251 29.2265 23.6256 29.2265 24.4562C29.2265 25.2869 29.827 25.8874 30.601 25.8874C31.0013 25.8874 31.2882 25.7439 31.4617 25.487V25.8307H32.0621V24.4562ZM29.8571 24.4562C29.8571 23.9692 30.1706 23.5689 30.6877 23.5689C31.1748 23.5689 31.5184 23.9425 31.5184 24.4562C31.5184 24.9433 31.1748 25.3436 30.6877 25.3436C30.1706 25.3136 29.8571 24.9399 29.8571 24.4562ZM9.75429 24.4562V23.0818H9.15381V23.4254C8.95365 23.1685 8.66676 23.0251 8.29313 23.0251C7.51917 23.0251 6.91869 23.6256 6.91869 24.4562C6.91869 25.2869 7.51917 25.8874 8.29313 25.8874C8.69345 25.8874 8.98034 25.7439 9.15381 25.487V25.8307H9.75429V24.4562ZM7.52251 24.4562C7.52251 23.9692 7.83609 23.5689 8.35317 23.5689C8.84023 23.5689 9.18384 23.9425 9.18384 24.4562C9.18384 24.9433 8.84023 25.3436 8.35317 25.3436C7.83609 25.3136 7.52251 24.9399 7.52251 24.4562Z" fill="black"/>
<path d="M21.497 2.20508H12.4764V18.4114H21.497V2.20508Z" fill="#FF5A00"/>
<path d="M13.0769 10.3082C13.0769 7.01561 14.6248 4.09327 17 2.2051C15.252 0.830664 13.0469 0 10.6416 0C4.94373 0 0.333374 4.61035 0.333374 10.3082C0.333374 16.0061 4.94373 20.6165 10.6416 20.6165C13.0469 20.6165 15.252 19.7858 17 18.4114C14.6215 16.5499 13.0769 13.6009 13.0769 10.3082Z" fill="#EB001B"/>
<path d="M33.6667 10.3082C33.6667 16.0061 29.0563 20.6165 23.3584 20.6165C20.9532 20.6165 18.7481 19.7858 17 18.4114C19.4053 16.5199 20.9231 13.6009 20.9231 10.3082C20.9231 7.01561 19.3752 4.09327 17 2.2051C18.7447 0.830664 20.9498 0 23.3551 0C29.0563 0 33.6667 4.64038 33.6667 10.3082Z" fill="#F79E1B"/>
</g>
<defs>
<clipPath id="clip0_180_3988">
<rect width="33.3333" height="25.8874" fill="white" transform="translate(0.333374)"/>
</clipPath>
</defs>
</svg>
