<svg width="248" height="59" viewBox="0 0 248 59" fill="none" xmlns="http://www.w3.org/2000/svg">
<path d="M63.0553 30.5331V2.06631H67.491H71.9267V3.94801C71.9267 4.98294 71.9425 5.82971 71.9618 5.82971C71.9811 5.82971 72.541 5.48862 73.2061 5.07173C81.0521 0.153801 92.4575 -1.3271 102.687 1.24386C111.903 3.56009 118.584 9.05847 120.959 16.2815C122.347 20.5024 122.271 25.1964 120.748 29.2786C118.853 34.3566 114.957 38.4393 109.339 41.2361C104.422 43.6836 98.8079 44.9092 92.514 44.9092C87.2963 44.9092 82.43 44.0386 78.1463 42.3387C76.4465 41.6642 74.2677 40.5569 72.946 39.6959L71.9267 39.0319V49.0159V58.9998H67.491H63.0553V30.5331ZM96.8051 37.3412C101.795 36.6329 105.667 35.0486 108.569 32.5271C110.767 30.6184 112.297 27.9674 112.877 25.0655C113.114 23.8786 113.114 21.0757 112.879 19.8923C112.197 16.4771 110.241 13.4938 107.313 11.4018C106.133 10.5585 103.736 9.35707 102.206 8.84203C97.8856 7.38761 92.6471 6.9569 87.8491 7.6616C79.5187 8.88513 73.8883 13.0196 72.3777 19.0225C71.7112 21.671 71.8302 24.5301 72.711 27.0291C74.7116 32.7054 80.6108 36.4827 88.9474 37.4254C90.6234 37.6149 95.2254 37.5656 96.8063 37.3412H96.8051ZM126.216 30.5331V2.06631H130.651H135.087V3.94801C135.087 4.98294 135.106 5.82971 135.13 5.82971C135.153 5.82971 135.641 5.5238 136.214 5.14992C137.541 4.2848 140.158 2.9909 141.837 2.3709C149.083 -0.305516 157.929 -0.737144 165.672 1.20804C178.292 4.37885 185.724 13.0659 185.023 23.8265C184.487 32.0404 179.025 38.7874 170.042 42.333C167.112 43.4895 164.108 44.2189 160.35 44.6868C158.366 44.9337 153.02 44.9334 150.949 44.6863C145.088 43.9866 139.943 42.2449 135.931 39.603L135.087 39.0473V49.0237V59H130.651H126.216V30.5331ZM160.18 37.2994C167.091 36.2666 171.961 33.4804 174.52 29.0956C176.006 26.5488 176.563 23.1605 176.012 20.0148C174.866 13.4762 169.124 8.95165 160.332 7.6604C154.53 6.80814 147.978 7.65705 143.524 9.83827C138.978 12.0649 136.242 15.3894 135.308 19.8218C135.063 20.9853 135.064 23.9766 135.31 25.1171C135.972 28.1872 137.467 30.7272 139.736 32.6363C142.861 35.2649 146.927 36.8301 152.204 37.4352C153.949 37.6353 158.445 37.5588 160.181 37.2994H160.18ZM26.4127 44.8504C21.7069 44.4345 17.6904 43.5067 14.2748 42.0468C6.50623 38.7262 1.59953 33.1219 0.267916 26.0483C0.0135925 24.6972 -0.0834251 21.6536 0.0814949 20.1991C1.04309 11.7186 7.2858 5.00137 17.1557 1.82712C22.408 0.137938 28.8732 -0.413859 34.6762 0.331773C45.308 1.69787 53.3503 6.63147 56.8851 13.9561C59.7632 19.9199 59.398 27.1643 55.9384 32.7335C54.3798 35.2424 51.8139 37.8315 49.1697 39.5632C45.056 42.2572 40.1426 43.9332 34.1752 44.678C32.9799 44.8271 27.5215 44.9484 26.4127 44.8504ZM32.7057 37.4344C37.3334 36.9429 41.2263 35.6209 44.1555 33.5461C46.55 31.85 48.4449 29.3503 49.2951 26.7658C49.7928 25.253 49.8915 24.5427 49.8915 22.4755C49.8915 20.4145 49.7942 19.7101 49.3004 18.1962C47.6774 13.2205 42.93 9.51934 36.2966 8.05819C30.4808 6.77711 23.6983 7.22237 18.6731 9.21516C15.0477 10.6528 12.1861 12.98 10.508 15.8555C8.72353 18.9131 8.31869 23.0778 9.45706 26.6667C10.6836 30.5337 13.9146 33.7701 18.361 35.5853C20.7829 36.574 23.7815 37.2628 26.7502 37.5125C27.8893 37.6083 31.5161 37.5607 32.7057 37.4344ZM215.701 44.8537C215.515 44.8325 214.864 44.7679 214.254 44.7101C209.357 44.2457 204.209 42.6981 200.435 40.5559C195.332 37.6599 191.778 33.5438 190.156 28.6514C189.058 25.3403 188.87 21.6193 189.629 18.196C190.776 13.0196 193.925 8.62411 198.815 5.37317C205.263 1.08603 214.744 -0.818049 223.897 0.336019C231.501 1.29483 237.766 4.07795 242.125 8.4338C245.445 11.7511 247.353 15.6381 247.905 20.2053C248.048 21.3922 248.026 23.7925 247.86 25.0519C246.664 34.1212 239.48 41.0528 228.477 43.7532C225.141 44.572 223.047 44.8198 219.124 44.8603C217.427 44.8778 215.886 44.8749 215.701 44.8537ZM221.534 37.4796C227.392 36.9403 232.166 35.0085 235.231 31.9375C237.306 29.8582 238.511 27.5692 238.985 24.803C239.181 23.663 239.178 21.2867 238.98 20.1042C237.912 13.7388 232.304 9.12484 223.993 7.77476C221.998 7.45061 220.671 7.34501 218.593 7.34501C209.276 7.34501 202.047 10.8607 199.266 16.7438C198.437 18.4974 198.055 20.307 198.055 22.4755C198.055 25.3369 198.721 27.6062 200.226 29.8674C202.987 34.0186 208.224 36.6706 215.156 37.4279C216.586 37.5841 220.09 37.6125 221.534 37.4796Z" fill="#006B33"/>
</svg>
