<svg width="112" height="24" viewBox="0 0 112 24" fill="none" xmlns="http://www.w3.org/2000/svg">
<path fill-rule="evenodd" clip-rule="evenodd" d="M12.0001 3.25C12.3194 3.25 12.6037 3.45216 12.7085 3.75375L14.4181 8.67193L19.6238 8.77802C19.9431 8.78452 20.2232 8.99243 20.3218 9.2961C20.4205 9.59977 20.3161 9.93262 20.0617 10.1255L15.9125 13.2712L17.4202 18.255C17.5127 18.5606 17.4015 18.8912 17.1432 19.0789C16.8849 19.2666 16.5361 19.2701 16.274 19.0878L12.0001 16.1137L7.7262 19.0878C7.46412 19.2701 7.1153 19.2666 6.85698 19.0789C6.59866 18.8912 6.48749 18.5606 6.57995 18.255L8.08772 13.2712L3.93854 10.1255C3.6841 9.93262 3.57969 9.59977 3.67836 9.2961C3.77702 8.99243 4.05714 8.78452 4.37637 8.77802L9.58212 8.67193L11.2917 3.75375C11.3965 3.45216 11.6808 3.25 12.0001 3.25ZM12.0001 6.28429L10.8276 9.65739C10.7246 9.9537 10.4481 10.1546 10.1345 10.161L6.56413 10.2337L9.40983 12.3912C9.6598 12.5807 9.76542 12.9058 9.67459 13.206L8.64049 16.6241L11.5717 14.5844C11.8292 14.4052 12.171 14.4052 12.4285 14.5844L15.3597 16.6241L14.3256 13.206C14.2348 12.9058 14.3404 12.5807 14.5904 12.3912L17.4361 10.2337L13.8657 10.161C13.5521 10.1546 13.2756 9.9537 13.1726 9.65739L12.0001 6.28429Z" fill="#FF8300"/>
<path fill-rule="evenodd" clip-rule="evenodd" d="M34.0001 3.25C34.3194 3.25 34.6037 3.45216 34.7085 3.75375L36.4181 8.67193L41.6238 8.77802C41.9431 8.78452 42.2232 8.99243 42.3218 9.2961C42.4205 9.59977 42.3161 9.93262 42.0617 10.1255L37.9125 13.2712L39.4202 18.255C39.5127 18.5606 39.4015 18.8912 39.1432 19.0789C38.8849 19.2666 38.5361 19.2701 38.274 19.0878L34.0001 16.1137L29.7262 19.0878C29.4641 19.2701 29.1153 19.2666 28.857 19.0789C28.5987 18.8912 28.4875 18.5606 28.58 18.255L30.0877 13.2712L25.9385 10.1255C25.6841 9.93262 25.5797 9.59977 25.6784 9.2961C25.777 8.99243 26.0571 8.78452 26.3764 8.77802L31.5821 8.67193L33.2917 3.75375C33.3965 3.45216 33.6808 3.25 34.0001 3.25ZM34.0001 6.28429L32.8276 9.65739C32.7246 9.9537 32.4481 10.1546 32.1345 10.161L28.5641 10.2337L31.4098 12.3912C31.6598 12.5807 31.7654 12.9058 31.6746 13.206L30.6405 16.6241L33.5717 14.5844C33.8292 14.4052 34.171 14.4052 34.4285 14.5844L37.3597 16.6241L36.3256 13.206C36.2348 12.9058 36.3404 12.5807 36.5904 12.3912L39.4361 10.2337L35.8657 10.161C35.5521 10.1546 35.2756 9.9537 35.1726 9.65739L34.0001 6.28429Z" fill="#FF8300"/>
<path fill-rule="evenodd" clip-rule="evenodd" d="M56.0001 3.25C56.3194 3.25 56.6037 3.45216 56.7085 3.75375L58.4181 8.67193L63.6238 8.77802C63.9431 8.78452 64.2232 8.99243 64.3218 9.2961C64.4205 9.59977 64.3161 9.93262 64.0617 10.1255L59.9125 13.2712L61.4202 18.255C61.5127 18.5606 61.4015 18.8912 61.1432 19.0789C60.8849 19.2666 60.5361 19.2701 60.274 19.0878L56.0001 16.1137L51.7262 19.0878C51.4641 19.2701 51.1153 19.2666 50.857 19.0789C50.5987 18.8912 50.4875 18.5606 50.58 18.255L52.0877 13.2712L47.9385 10.1255C47.6841 9.93262 47.5797 9.59977 47.6784 9.2961C47.777 8.99243 48.0571 8.78452 48.3764 8.77802L53.5821 8.67193L55.2917 3.75375C55.3965 3.45216 55.6808 3.25 56.0001 3.25ZM56.0001 6.28429L54.8276 9.65739C54.7246 9.9537 54.4481 10.1546 54.1345 10.161L50.5641 10.2337L53.4098 12.3912C53.6598 12.5807 53.7654 12.9058 53.6746 13.206L52.6405 16.6241L55.5717 14.5844C55.8292 14.4052 56.171 14.4052 56.4285 14.5844L59.3597 16.6241L58.3256 13.206C58.2348 12.9058 58.3404 12.5807 58.5904 12.3912L61.4361 10.2337L57.8657 10.161C57.5521 10.1546 57.2756 9.9537 57.1726 9.65739L56.0001 6.28429Z" fill="#FF8300"/>
<path fill-rule="evenodd" clip-rule="evenodd" d="M78.0001 3.25C78.3194 3.25 78.6037 3.45216 78.7085 3.75375L80.4181 8.67193L85.6238 8.77802C85.9431 8.78452 86.2232 8.99243 86.3218 9.2961C86.4205 9.59977 86.3161 9.93262 86.0617 10.1255L81.9125 13.2712L83.4202 18.255C83.5127 18.5606 83.4015 18.8912 83.1432 19.0789C82.8849 19.2666 82.5361 19.2701 82.274 19.0878L78.0001 16.1137L73.7262 19.0878C73.4641 19.2701 73.1153 19.2666 72.857 19.0789C72.5987 18.8912 72.4875 18.5606 72.58 18.255L74.0877 13.2712L69.9385 10.1255C69.6841 9.93262 69.5797 9.59977 69.6784 9.2961C69.777 8.99243 70.0571 8.78452 70.3764 8.77802L75.5821 8.67193L77.2917 3.75375C77.3965 3.45216 77.6808 3.25 78.0001 3.25ZM78.0001 6.28429L76.8276 9.65739C76.7246 9.9537 76.4481 10.1546 76.1345 10.161L72.5641 10.2337L75.4098 12.3912C75.6598 12.5807 75.7654 12.9058 75.6746 13.206L74.6405 16.6241L77.5717 14.5844C77.8292 14.4052 78.171 14.4052 78.4285 14.5844L81.3597 16.6241L80.3256 13.206C80.2348 12.9058 80.3404 12.5807 80.5904 12.3912L83.4361 10.2337L79.8657 10.161C79.5521 10.1546 79.2756 9.9537 79.1726 9.65739L78.0001 6.28429Z" fill="#FF8300"/>
<path fill-rule="evenodd" clip-rule="evenodd" d="M100 3.25C100.319 3.25 100.604 3.45216 100.709 3.75375L102.418 8.67193L107.624 8.77802C107.943 8.78452 108.223 8.99243 108.322 9.2961C108.421 9.59977 108.316 9.93262 108.062 10.1255L103.912 13.2712L105.42 18.255C105.513 18.5606 105.402 18.8912 105.143 19.0789C104.885 19.2666 104.536 19.2701 104.274 19.0878L100 16.1137L95.7262 19.0878C95.4641 19.2701 95.1153 19.2666 94.857 19.0789C94.5987 18.8912 94.4875 18.5606 94.58 18.255L96.0877 13.2712L91.9385 10.1255C91.6841 9.93262 91.5797 9.59977 91.6784 9.2961C91.777 8.99243 92.0571 8.78452 92.3764 8.77802L97.5821 8.67193L99.2917 3.75375C99.3965 3.45216 99.6808 3.25 100 3.25ZM100 6.28429L98.8276 9.65739C98.7246 9.9537 98.4481 10.1546 98.1345 10.161L94.5641 10.2337L97.4098 12.3912C97.6598 12.5807 97.7654 12.9058 97.6746 13.206L96.6405 16.6241L99.5717 14.5844C99.8292 14.4052 100.171 14.4052 100.428 14.5844L103.36 16.6241L102.326 13.206C102.235 12.9058 102.34 12.5807 102.59 12.3912L105.436 10.2337L101.866 10.161C101.552 10.1546 101.276 9.9537 101.173 9.65739L100 6.28429Z" fill="#FF8300"/>
</svg>
