<svg width="112" height="24" viewBox="0 0 112 24" fill="none" xmlns="http://www.w3.org/2000/svg">
<path fill-rule="evenodd" clip-rule="evenodd" d="M12.7085 3.75375C12.6037 3.45216 12.3194 3.25 12.0001 3.25C11.6808 3.25 11.3965 3.45216 11.2917 3.75375L9.58212 8.67193L4.37637 8.77802C4.05714 8.78452 3.77702 8.99243 3.67836 9.2961C3.57969 9.59977 3.6841 9.93262 3.93854 10.1255L8.08772 13.2712L6.57995 18.255C6.48749 18.5606 6.59866 18.8912 6.85698 19.0789C7.1153 19.2666 7.46412 19.2701 7.7262 19.0878L12.0001 16.1137L16.274 19.0878C16.5361 19.2701 16.8849 19.2666 17.1432 19.0789C17.4015 18.8912 17.5127 18.5606 17.4202 18.255L15.9125 13.2712L20.0617 10.1255C20.3161 9.93262 20.4205 9.59977 20.3218 9.2961C20.2232 8.99243 19.9431 8.78452 19.6238 8.77802L14.4181 8.67193L12.7085 3.75375Z" fill="#FF8300"/>
<path fill-rule="evenodd" clip-rule="evenodd" d="M34.7085 3.75375C34.6037 3.45216 34.3194 3.25 34.0001 3.25C33.6808 3.25 33.3965 3.45216 33.2917 3.75375L31.5821 8.67193L26.3764 8.77802C26.0571 8.78452 25.777 8.99243 25.6784 9.2961C25.5797 9.59977 25.6841 9.93262 25.9385 10.1255L30.0877 13.2712L28.58 18.255C28.4875 18.5606 28.5987 18.8912 28.857 19.0789C29.1153 19.2666 29.4641 19.2701 29.7262 19.0878L34.0001 16.1137L38.274 19.0878C38.5361 19.2701 38.8849 19.2666 39.1432 19.0789C39.4015 18.8912 39.5127 18.5606 39.4202 18.255L37.9125 13.2712L42.0617 10.1255C42.3161 9.93262 42.4205 9.59977 42.3218 9.2961C42.2232 8.99243 41.9431 8.78452 41.6238 8.77802L36.4181 8.67193L34.7085 3.75375Z" fill="#FF8300"/>
<path fill-rule="evenodd" clip-rule="evenodd" d="M56.7085 3.75375C56.6037 3.45216 56.3194 3.25 56.0001 3.25C55.6808 3.25 55.3965 3.45216 55.2917 3.75375L53.5821 8.67193L48.3764 8.77802C48.0571 8.78452 47.777 8.99243 47.6784 9.2961C47.5797 9.59977 47.6841 9.93262 47.9385 10.1255L52.0877 13.2712L50.58 18.255C50.4875 18.5606 50.5987 18.8912 50.857 19.0789C51.1153 19.2666 51.4641 19.2701 51.7262 19.0878L56.0001 16.1137L60.274 19.0878C60.5361 19.2701 60.8849 19.2666 61.1432 19.0789C61.4015 18.8912 61.5127 18.5606 61.4202 18.255L59.9125 13.2712L64.0617 10.1255C64.3161 9.93262 64.4205 9.59977 64.3218 9.2961C64.2232 8.99243 63.9431 8.78452 63.6238 8.77802L58.4181 8.67193L56.7085 3.75375Z" fill="#FF8300"/>
<path fill-rule="evenodd" clip-rule="evenodd" d="M78.7085 3.75375C78.6037 3.45216 78.3194 3.25 78.0001 3.25C77.6808 3.25 77.3965 3.45216 77.2917 3.75375L75.5821 8.67193L70.3764 8.77802C70.0571 8.78452 69.777 8.99243 69.6784 9.2961C69.5797 9.59977 69.6841 9.93262 69.9385 10.1255L74.0877 13.2712L72.58 18.255C72.4875 18.5606 72.5987 18.8912 72.857 19.0789C73.1153 19.2666 73.4641 19.2701 73.7262 19.0878L78.0001 16.1137L82.274 19.0878C82.5361 19.2701 82.8849 19.2666 83.1432 19.0789C83.4015 18.8912 83.5127 18.5606 83.4202 18.255L81.9125 13.2712L86.0617 10.1255C86.3161 9.93262 86.4205 9.59977 86.3218 9.2961C86.2232 8.99243 85.9431 8.78452 85.6238 8.77802L80.4181 8.67193L78.7085 3.75375Z" fill="#FF8300"/>
<path fill-rule="evenodd" clip-rule="evenodd" d="M100.709 3.75375C100.604 3.45216 100.319 3.25 100 3.25C99.6808 3.25 99.3965 3.45216 99.2917 3.75375L97.5821 8.67193L92.3764 8.77802C92.0571 8.78452 91.777 8.99243 91.6784 9.2961C91.5797 9.59977 91.6841 9.93262 91.9385 10.1255L96.0877 13.2712L94.58 18.255C94.4875 18.5606 94.5987 18.8912 94.857 19.0789C95.1153 19.2666 95.4641 19.2701 95.7262 19.0878L100 16.1137L104.274 19.0878C104.536 19.2701 104.885 19.2666 105.143 19.0789C105.402 18.8912 105.513 18.5606 105.42 18.255L103.912 13.2712L108.062 10.1255C108.316 9.93262 108.421 9.59977 108.322 9.2961C108.223 8.99243 107.943 8.78452 107.624 8.77802L102.418 8.67193L100.709 3.75375Z" fill="#FF8300"/>
</svg>
