<svg width="136" height="24" viewBox="0 0 136 24" fill="none" xmlns="http://www.w3.org/2000/svg">
<path fill-rule="evenodd" clip-rule="evenodd" d="M12.7085 3.75375C12.6037 3.45216 12.3194 3.25 12.0001 3.25C11.6808 3.25 11.3965 3.45216 11.2917 3.75375L9.58212 8.67193L4.37637 8.77802C4.05714 8.78452 3.77702 8.99243 3.67836 9.2961C3.57969 9.59977 3.6841 9.93262 3.93854 10.1255L8.08772 13.2712L6.57995 18.255C6.48749 18.5606 6.59866 18.8912 6.85698 19.0789C7.1153 19.2666 7.46412 19.2701 7.7262 19.0878L12.0001 16.1137L16.274 19.0878C16.5361 19.2701 16.8849 19.2666 17.1432 19.0789C17.4015 18.8912 17.5127 18.5606 17.4202 18.255L15.9125 13.2712L20.0617 10.1255C20.3161 9.93262 20.4205 9.59977 20.3218 9.2961C20.2232 8.99243 19.9431 8.78452 19.6238 8.77802L14.4181 8.67193L12.7085 3.75375Z" fill="#FF8300"/>
<path fill-rule="evenodd" clip-rule="evenodd" d="M40.7085 3.75375C40.6037 3.45216 40.3194 3.25 40.0001 3.25C39.6808 3.25 39.3965 3.45216 39.2917 3.75375L37.5821 8.67193L32.3764 8.77802C32.0571 8.78452 31.777 8.99243 31.6784 9.2961C31.5797 9.59977 31.6841 9.93262 31.9385 10.1255L36.0877 13.2712L34.58 18.255C34.4875 18.5606 34.5987 18.8912 34.857 19.0789C35.1153 19.2666 35.4641 19.2701 35.7262 19.0878L40.0001 16.1137L44.274 19.0878C44.5361 19.2701 44.8849 19.2666 45.1432 19.0789C45.4015 18.8912 45.5127 18.5606 45.4202 18.255L43.9125 13.2712L48.0617 10.1255C48.3161 9.93262 48.4205 9.59977 48.3218 9.2961C48.2232 8.99243 47.9431 8.78452 47.6238 8.77802L42.4181 8.67193L40.7085 3.75375Z" fill="#FF8300"/>
<path fill-rule="evenodd" clip-rule="evenodd" d="M68.7085 3.75375C68.6037 3.45216 68.3194 3.25 68.0001 3.25C67.6808 3.25 67.3965 3.45216 67.2917 3.75375L65.5821 8.67193L60.3764 8.77802C60.0571 8.78452 59.777 8.99243 59.6784 9.2961C59.5797 9.59977 59.6841 9.93262 59.9385 10.1255L64.0877 13.2712L62.58 18.255C62.4875 18.5606 62.5987 18.8912 62.857 19.0789C63.1153 19.2666 63.4641 19.2701 63.7262 19.0878L68.0001 16.1137L72.274 19.0878C72.5361 19.2701 72.8849 19.2666 73.1432 19.0789C73.4015 18.8912 73.5127 18.5606 73.4202 18.255L71.9125 13.2712L76.0617 10.1255C76.3161 9.93262 76.4205 9.59977 76.3218 9.2961C76.2232 8.99243 75.9431 8.78452 75.6238 8.77802L70.4181 8.67193L68.7085 3.75375Z" fill="#FF8300"/>
<path fill-rule="evenodd" clip-rule="evenodd" d="M96.7085 3.75375C96.6037 3.45216 96.3194 3.25 96.0001 3.25C95.6808 3.25 95.3965 3.45216 95.2917 3.75375L93.5821 8.67193L88.3764 8.77802C88.0571 8.78452 87.777 8.99243 87.6784 9.2961C87.5797 9.59977 87.6841 9.93262 87.9385 10.1255L92.0877 13.2712L90.58 18.255C90.4875 18.5606 90.5987 18.8912 90.857 19.0789C91.1153 19.2666 91.4641 19.2701 91.7262 19.0878L96.0001 16.1137L100.274 19.0878C100.536 19.2701 100.885 19.2666 101.143 19.0789C101.402 18.8912 101.513 18.5606 101.42 18.255L99.9125 13.2712L104.062 10.1255C104.316 9.93262 104.421 9.59977 104.322 9.2961C104.223 8.99243 103.943 8.78452 103.624 8.77802L98.4181 8.67193L96.7085 3.75375Z" fill="#FF8300"/>
<path fill-rule="evenodd" clip-rule="evenodd" d="M124.709 3.75375C124.604 3.45216 124.319 3.25 124 3.25C123.681 3.25 123.397 3.45216 123.292 3.75375L121.582 8.67193L116.376 8.77802C116.057 8.78452 115.777 8.99243 115.678 9.2961C115.58 9.59977 115.684 9.93262 115.939 10.1255L120.088 13.2712L118.58 18.255C118.487 18.5606 118.599 18.8912 118.857 19.0789C119.115 19.2666 119.464 19.2701 119.726 19.0878L124 16.1137L128.274 19.0878C128.536 19.2701 128.885 19.2666 129.143 19.0789C129.402 18.8912 129.513 18.5606 129.42 18.255L127.912 13.2712L132.062 10.1255C132.316 9.93262 132.421 9.59977 132.322 9.2961C132.223 8.99243 131.943 8.78452 131.624 8.77802L126.418 8.67193L124.709 3.75375Z" fill="#FF8300"/>
</svg>
