<svg width="136" height="24" viewBox="0 0 136 24" fill="none" xmlns="http://www.w3.org/2000/svg">
<path fill-rule="evenodd" clip-rule="evenodd" d="M12.0001 3.25C12.3194 3.25 12.6037 3.45216 12.7085 3.75375L14.4181 8.67193L19.6238 8.77802C19.9431 8.78452 20.2232 8.99243 20.3218 9.2961C20.4205 9.59977 20.3161 9.93262 20.0617 10.1255L15.9125 13.2712L17.4202 18.255C17.5127 18.5606 17.4015 18.8912 17.1432 19.0789C16.8849 19.2666 16.5361 19.2701 16.274 19.0878L12.0001 16.1137L7.7262 19.0878C7.46412 19.2701 7.1153 19.2666 6.85698 19.0789C6.59866 18.8912 6.48749 18.5606 6.57995 18.255L8.08772 13.2712L3.93854 10.1255C3.6841 9.93262 3.57969 9.59977 3.67836 9.2961C3.77702 8.99243 4.05714 8.78452 4.37637 8.77802L9.58212 8.67193L11.2917 3.75375C11.3965 3.45216 11.6808 3.25 12.0001 3.25ZM12.0001 6.28429L10.8276 9.65739C10.7246 9.9537 10.4481 10.1546 10.1345 10.161L6.56413 10.2337L9.40983 12.3912C9.6598 12.5807 9.76542 12.9058 9.67459 13.206L8.64049 16.6241L11.5717 14.5844C11.8292 14.4052 12.171 14.4052 12.4285 14.5844L15.3597 16.6241L14.3256 13.206C14.2348 12.9058 14.3404 12.5807 14.5904 12.3912L17.4361 10.2337L13.8657 10.161C13.5521 10.1546 13.2756 9.9537 13.1726 9.65739L12.0001 6.28429Z" fill="#FF8300"/>
<path fill-rule="evenodd" clip-rule="evenodd" d="M40.0001 3.25C40.3194 3.25 40.6037 3.45216 40.7085 3.75375L42.4181 8.67193L47.6238 8.77802C47.9431 8.78452 48.2232 8.99243 48.3218 9.2961C48.4205 9.59977 48.3161 9.93262 48.0617 10.1255L43.9125 13.2712L45.4202 18.255C45.5127 18.5606 45.4015 18.8912 45.1432 19.0789C44.8849 19.2666 44.5361 19.2701 44.274 19.0878L40.0001 16.1137L35.7262 19.0878C35.4641 19.2701 35.1153 19.2666 34.857 19.0789C34.5987 18.8912 34.4875 18.5606 34.58 18.255L36.0877 13.2712L31.9385 10.1255C31.6841 9.93262 31.5797 9.59977 31.6784 9.2961C31.777 8.99243 32.0571 8.78452 32.3764 8.77802L37.5821 8.67193L39.2917 3.75375C39.3965 3.45216 39.6808 3.25 40.0001 3.25ZM40.0001 6.28429L38.8276 9.65739C38.7246 9.9537 38.4481 10.1546 38.1345 10.161L34.5641 10.2337L37.4098 12.3912C37.6598 12.5807 37.7654 12.9058 37.6746 13.206L36.6405 16.6241L39.5717 14.5844C39.8292 14.4052 40.171 14.4052 40.4285 14.5844L43.3597 16.6241L42.3256 13.206C42.2348 12.9058 42.3404 12.5807 42.5904 12.3912L45.4361 10.2337L41.8657 10.161C41.5521 10.1546 41.2756 9.9537 41.1726 9.65739L40.0001 6.28429Z" fill="#FF8300"/>
<path fill-rule="evenodd" clip-rule="evenodd" d="M68.0001 3.25C68.3194 3.25 68.6037 3.45216 68.7085 3.75375L70.4181 8.67193L75.6238 8.77802C75.9431 8.78452 76.2232 8.99243 76.3218 9.2961C76.4205 9.59977 76.3161 9.93262 76.0617 10.1255L71.9125 13.2712L73.4202 18.255C73.5127 18.5606 73.4015 18.8912 73.1432 19.0789C72.8849 19.2666 72.5361 19.2701 72.274 19.0878L68.0001 16.1137L63.7262 19.0878C63.4641 19.2701 63.1153 19.2666 62.857 19.0789C62.5987 18.8912 62.4875 18.5606 62.58 18.255L64.0877 13.2712L59.9385 10.1255C59.6841 9.93262 59.5797 9.59977 59.6784 9.2961C59.777 8.99243 60.0571 8.78452 60.3764 8.77802L65.5821 8.67193L67.2917 3.75375C67.3965 3.45216 67.6808 3.25 68.0001 3.25ZM68.0001 6.28429L66.8276 9.65739C66.7246 9.9537 66.4481 10.1546 66.1345 10.161L62.5641 10.2337L65.4098 12.3912C65.6598 12.5807 65.7654 12.9058 65.6746 13.206L64.6405 16.6241L67.5717 14.5844C67.8292 14.4052 68.171 14.4052 68.4285 14.5844L71.3597 16.6241L70.3256 13.206C70.2348 12.9058 70.3404 12.5807 70.5904 12.3912L73.4361 10.2337L69.8657 10.161C69.5521 10.1546 69.2756 9.9537 69.1726 9.65739L68.0001 6.28429Z" fill="#FF8300"/>
<path fill-rule="evenodd" clip-rule="evenodd" d="M96.0001 3.25C96.3194 3.25 96.6037 3.45216 96.7085 3.75375L98.4181 8.67193L103.624 8.77802C103.943 8.78452 104.223 8.99243 104.322 9.2961C104.421 9.59977 104.316 9.93262 104.062 10.1255L99.9125 13.2712L101.42 18.255C101.513 18.5606 101.402 18.8912 101.143 19.0789C100.885 19.2666 100.536 19.2701 100.274 19.0878L96.0001 16.1137L91.7262 19.0878C91.4641 19.2701 91.1153 19.2666 90.857 19.0789C90.5987 18.8912 90.4875 18.5606 90.58 18.255L92.0877 13.2712L87.9385 10.1255C87.6841 9.93262 87.5797 9.59977 87.6784 9.2961C87.777 8.99243 88.0571 8.78452 88.3764 8.77802L93.5821 8.67193L95.2917 3.75375C95.3965 3.45216 95.6808 3.25 96.0001 3.25ZM96.0001 6.28429L94.8276 9.65739C94.7246 9.9537 94.4481 10.1546 94.1345 10.161L90.5641 10.2337L93.4098 12.3912C93.6598 12.5807 93.7654 12.9058 93.6746 13.206L92.6405 16.6241L95.5717 14.5844C95.8292 14.4052 96.171 14.4052 96.4285 14.5844L99.3597 16.6241L98.3256 13.206C98.2348 12.9058 98.3404 12.5807 98.5904 12.3912L101.436 10.2337L97.8657 10.161C97.5521 10.1546 97.2756 9.9537 97.1726 9.65739L96.0001 6.28429Z" fill="#FF8300"/>
<path fill-rule="evenodd" clip-rule="evenodd" d="M124 3.25C124.319 3.25 124.604 3.45216 124.709 3.75375L126.418 8.67193L131.624 8.77802C131.943 8.78452 132.223 8.99243 132.322 9.2961C132.421 9.59977 132.316 9.93262 132.062 10.1255L127.912 13.2712L129.42 18.255C129.513 18.5606 129.402 18.8912 129.143 19.0789C128.885 19.2666 128.536 19.2701 128.274 19.0878L124 16.1137L119.726 19.0878C119.464 19.2701 119.115 19.2666 118.857 19.0789C118.599 18.8912 118.487 18.5606 118.58 18.255L120.088 13.2712L115.939 10.1255C115.684 9.93262 115.58 9.59977 115.678 9.2961C115.777 8.99243 116.057 8.78452 116.376 8.77802L121.582 8.67193L123.292 3.75375C123.397 3.45216 123.681 3.25 124 3.25ZM124 6.28429L122.828 9.65739C122.725 9.9537 122.448 10.1546 122.134 10.161L118.564 10.2337L121.41 12.3912C121.66 12.5807 121.765 12.9058 121.675 13.206L120.64 16.6241L123.572 14.5844C123.829 14.4052 124.171 14.4052 124.428 14.5844L127.36 16.6241L126.326 13.206C126.235 12.9058 126.34 12.5807 126.59 12.3912L129.436 10.2337L125.866 10.161C125.552 10.1546 125.276 9.9537 125.173 9.65739L124 6.28429Z" fill="#FF8300"/>
</svg>
