<svg width="387" height="58" viewBox="0 0 387 58" fill="none" xmlns="http://www.w3.org/2000/svg">
<path fill-rule="evenodd" clip-rule="evenodd" d="M369.174 26.1896V34.1392H372.95V42.6676C372.95 46.828 369.473 46.9045 369.473 46.9045C365.237 46.9045 365.398 42.9515 365.398 42.9515V13.4572C365.398 10.4106 369.153 10.2468 369.153 10.2468C372.758 10.2468 372.78 13.8722 372.78 13.8722V18.3601H386.669C387.117 9.61344 385.41 7.48408 385.41 7.48408C381.975 -0.421884 368.939 0.00402936 368.939 0.00402936C348.926 0.00402936 351.145 15.7285 351.145 15.7285V44.251C351.568 58.8461 370.907 57.5248 371.622 57.4759L371.638 57.4748C380.407 56.4811 383.064 53.6311 383.064 53.6311C385.496 51.7747 386.125 49.2085 386.125 49.2085C386.819 47.7125 387 42.9515 387 42.9515V26.1896H369.174ZM212.217 26.9322C212.217 26.9322 208.451 24.5517 206.115 23.6235C206.115 23.6235 198.914 20.2056 197.485 18.5785C197.485 18.5785 194.679 15.8705 196.322 12.7255C196.322 12.7255 197.005 10.6726 199.97 10.6726C199.97 10.6726 203.843 10.891 203.843 14.1342V18.7205H217.69L217.658 11.9721C217.658 11.9721 218.725 0.91035 201.347 0.41896C201.347 0.41896 187.681 -0.498344 183.766 7.03631C183.766 7.03631 182.23 8.71799 182.23 14.571V18.7969C182.23 18.7969 182.07 23.6781 184.502 26.823C184.502 26.823 185.878 28.8868 189.271 31.1581C189.271 31.1581 196.162 34.9582 200.29 37.1312C200.29 37.1312 204.462 39.5664 203.918 43.4429C203.918 43.4429 203.576 47.4286 199.544 47.2648C199.544 47.2648 195.863 47.0901 195.863 43.1917V38.6054H181.11V45.2665C181.11 45.2665 180.694 57.999 199.661 57.999C199.661 57.999 217.775 58.3702 218.618 44.928V39.5118C218.618 39.5118 219.258 31.2673 212.217 26.9322ZM141.318 2.00233L136.678 31.7478H135.6L131.162 2.27532H108.034L106.872 56.1317H120.569L120.74 15.5538H121.817L129.072 56.1208H143.484L150.653 15.5647H151.602L151.933 56.1317H165.705L164.222 2.00233H141.318ZM50.6732 56.0771L59.7943 2.23165H83.0609L92.1713 56.0771H77.4283L72.0303 14.3199H70.8142L65.4162 56.0771H50.6732ZM322.555 34.9583H323.153L322.171 2.01326H336.061V56.1426H319.707L305.113 23.2086H304.505L305.327 56.1426H291.608V2.01326H308.463L322.555 34.9583ZM258.121 42.6567C258.121 42.6567 258.324 47.101 254.302 47.101C254.302 47.101 250.067 47.3304 250.067 42.7659L250.024 2.046H234.972V42.4383C234.972 42.4383 233.436 57.726 254.505 57.726C254.505 57.726 272.822 57.9553 272.822 43.148V2.05693H258.121V42.6567ZM25.0169 23.6235C27.3425 24.5517 31.1083 26.9322 31.1083 26.9322C38.1491 31.2673 37.5197 39.5118 37.5197 39.5118V44.928C36.6663 58.3702 18.5522 57.999 18.5522 57.999C-0.404703 57.999 0.000681952 45.2665 0.000681952 45.2665V38.6055H14.7651V43.1918C14.7651 47.0901 18.4455 47.2648 18.4455 47.2648C22.4673 47.4286 22.8087 43.4429 22.8087 43.4429C23.3634 39.5664 19.1922 37.1204 19.1922 37.1204C15.0531 34.9582 8.1723 31.1581 8.1723 31.1581C4.77991 28.8869 3.40376 26.823 3.40376 26.823C0.971471 23.6781 1.13149 18.797 1.13149 18.797V14.571C1.13149 8.71799 2.66766 7.03636 2.66766 7.03636C2.68899 6.99269 2.71034 6.9599 2.73167 6.91623C6.49745 1.00862 17.016 0.42989 17.016 0.42989C18.9362 0.331623 20.2484 0.41896 20.2484 0.41896C37.6157 0.91035 36.5596 11.9612 36.5596 11.9612L36.5916 18.7205H22.734V14.1342C22.734 10.891 18.8722 10.6726 18.8722 10.6726C15.9065 10.6726 15.2131 12.7256 15.2131 12.7256C13.5702 15.8705 16.3866 18.5786 16.3866 18.5786C17.8161 20.2166 25.0169 23.6235 25.0169 23.6235Z" fill="#1D1D1B"/>
</svg>
