<svg width="45" height="16" viewBox="0 0 45 16" fill="none" xmlns="http://www.w3.org/2000/svg">
<rect width="44.334" height="16" rx="8" fill="white"/>
<path fill-rule="evenodd" clip-rule="evenodd" d="M13.6078 4.51025C13.7256 4.31535 13.5271 4.09991 13.1707 4.02539C12.8174 3.952 12.4294 4.04286 12.298 4.23166L7.75821 10.7741C7.50249 11.1435 7.664 11.6029 8.15296 11.7639C8.64766 11.9273 9.25653 11.7266 9.49731 11.3265L13.6078 4.51025Z" fill="#0069B3"/>
<path fill-rule="evenodd" clip-rule="evenodd" d="M6.21114 11.7954C5.99914 11.7221 5.93718 11.5161 6.0693 11.3376L8.61313 7.89934C8.82259 7.61683 8.61313 7.36597 8.61313 7.36597L6.2982 4.57784C6.14975 4.39899 6.31758 4.16666 6.66538 4.05764C7.0088 3.94949 7.40953 3.99773 7.56751 4.16722L9.91397 6.69281C9.91397 6.69281 10.1134 6.90654 9.91397 7.19086L6.83328 11.596C6.70478 11.7786 6.42568 11.8686 6.21114 11.7954Z" fill="#0069B3"/>
<mask id="mask0_1_3907" style="mask-type:alpha" maskUnits="userSpaceOnUse" x="12" y="4" width="6" height="8">
<path d="M12.0242 4.04199H17.8071V12H12.0242V4.04199Z" fill="white"/>
</mask>
<g mask="url(#mask0_1_3907)">
<path fill-rule="evenodd" clip-rule="evenodd" d="M16.5257 4.05513C16.3597 4.0214 16.2719 4.0531 16.1503 4.14468L12.1356 7.16973C12.1356 7.16973 11.8515 7.38987 12.1926 7.72941L16.0841 11.6321C16.4524 12.0013 17.0999 12.1143 17.5063 11.8714C17.9042 11.633 17.9053 11.1552 17.5255 10.8081L13.5187 7.14921C13.3709 7.01399 13.3534 6.97284 13.5054 6.85267L16.75 4.28295C16.8262 4.20915 16.6918 4.08898 16.5257 4.05513Z" fill="#EE7D00"/>
</g>
<path fill-rule="evenodd" clip-rule="evenodd" d="M29.9402 7.9662C30.0407 8.05755 30.0407 8.20571 29.9402 8.29682C29.8398 8.38798 29.6778 8.38798 29.5773 8.29682L28.6355 7.43958C28.5852 7.39364 28.5601 7.33383 28.5601 7.27434C28.5601 7.21454 28.5852 7.15431 28.6355 7.10879L29.5773 6.2515C29.6778 6.15966 29.8398 6.15966 29.9402 6.2515C30.0407 6.34266 30.0407 6.49058 29.9402 6.58162L29.1803 7.27434L29.9402 7.9662Z" fill="#EE7D00"/>
<path fill-rule="evenodd" clip-rule="evenodd" d="M33.8344 6.41584C33.8344 6.54489 33.7189 6.64912 33.5776 6.64912C33.1988 6.64912 32.8917 6.92946 32.8917 7.27418V8.13191C32.8917 8.26114 32.7766 8.36519 32.6347 8.36519C32.4938 8.36519 32.3789 8.26114 32.3789 8.13191V7.27418C32.3789 6.67229 32.9167 6.18262 33.5776 6.18262C33.7189 6.18262 33.8344 6.28734 33.8344 6.41584Z" fill="#EE7D00"/>
<path fill-rule="evenodd" clip-rule="evenodd" d="M31.1079 7.89832C30.7626 7.89832 30.4828 7.61846 30.4828 7.27418C30.4828 6.92946 30.7626 6.64912 31.1079 6.64912C31.452 6.64912 31.732 6.92946 31.732 7.27418C31.732 7.61846 31.452 7.89832 31.1079 7.89832ZM31.1079 6.18262C30.5057 6.18262 30.0156 6.67229 30.0156 7.27418C30.0156 7.87546 30.5057 8.36519 31.1079 8.36519C31.3408 8.36519 31.5572 8.29119 31.7351 8.16604C31.7518 8.27887 31.8484 8.36519 31.9656 8.36519C32.0948 8.36519 32.1989 8.26114 32.1989 8.13197V7.27418C32.1989 6.67229 31.7091 6.18262 31.1079 6.18262Z" fill="#EE7D00"/>
<path fill-rule="evenodd" clip-rule="evenodd" d="M23.4657 6.41584C23.4657 6.54489 23.3507 6.64912 23.2092 6.64912C22.8306 6.64912 22.5227 6.92946 22.5227 7.27418V8.13191C22.5227 8.26114 22.4076 8.36519 22.2658 8.36519C22.1241 8.36519 22.0103 8.26114 22.0103 8.13191V7.27418C22.0103 6.67229 22.5478 6.18262 23.2092 6.18262C23.3507 6.18262 23.4657 6.28734 23.4657 6.41584Z" fill="#0069B3"/>
<path fill-rule="evenodd" clip-rule="evenodd" d="M21.5893 6.18262C21.4576 6.18262 21.3506 6.28734 21.3506 6.41584V7.29679C21.3506 7.64132 21.0883 7.89832 20.7359 7.89832C20.3842 7.89832 20.1218 7.64132 20.1218 7.29679V6.41584C20.1218 6.28734 20.0146 6.18262 19.883 6.18262C19.7513 6.18262 19.645 6.28734 19.645 6.41584V7.29679C19.645 7.89868 20.1212 8.36519 20.7359 8.36519C21.3518 8.36519 21.8283 7.89868 21.8283 7.29679V6.41584C21.8283 6.28734 21.7211 6.18262 21.5893 6.18262Z" fill="#0069B3"/>
<path fill-rule="evenodd" clip-rule="evenodd" d="M24.4968 6.09871H24.1329V5.69695C24.1329 5.56332 24.0242 5.45508 23.8907 5.45508C23.7562 5.45508 23.6482 5.56332 23.6482 5.69695V8.12299C23.6482 8.25712 23.7562 8.36518 23.8907 8.36518C24.0242 8.36518 24.1329 8.25712 24.1329 8.12299V6.58366H24.4968C24.631 6.58366 24.7398 6.47491 24.7398 6.3409C24.7398 6.20746 24.631 6.09871 24.4968 6.09871Z" fill="#0069B3"/>
<path fill-rule="evenodd" clip-rule="evenodd" d="M25.1944 6.18262C25.0435 6.18262 24.9216 6.28734 24.9216 6.41584V8.13197C24.9216 8.26114 25.0435 8.36519 25.1944 8.36519C25.3453 8.36519 25.4674 8.26114 25.4674 8.13197V6.41584C25.4674 6.28734 25.3453 6.18262 25.1944 6.18262Z" fill="#0069B3"/>
<path fill-rule="evenodd" clip-rule="evenodd" d="M25.1946 5.45508C25.0443 5.45508 24.9216 5.57736 24.9216 5.72867C24.9216 5.87893 25.0443 6.00072 25.1946 6.00072C25.3453 6.00072 25.4674 5.87893 25.4674 5.72867C25.4674 5.57736 25.3453 5.45508 25.1946 5.45508Z" fill="#0069B3"/>
<path fill-rule="evenodd" clip-rule="evenodd" d="M28.1047 6.18262C27.9538 6.18262 27.832 6.28734 27.832 6.41584V8.13197C27.832 8.26114 27.9538 8.36519 28.1047 8.36519C28.2557 8.36519 28.3778 8.26114 28.3778 8.13197V6.41584C28.3778 6.28734 28.2557 6.18262 28.1047 6.18262Z" fill="#0069B3"/>
<path fill-rule="evenodd" clip-rule="evenodd" d="M27.832 5.72863C27.832 5.57734 27.9545 5.45508 28.1051 5.45508C28.2558 5.45508 28.3778 5.57734 28.3778 5.72863C28.3778 5.87888 28.2558 6.00072 28.1051 6.00072C27.9545 6.00072 27.832 5.87888 27.832 5.72863Z" fill="#0069B3"/>
<path fill-rule="evenodd" clip-rule="evenodd" d="M27.2373 7.73623C27.1204 7.85094 26.9583 7.9213 26.7796 7.9213C26.4227 7.9213 26.1319 7.63844 26.1319 7.28874C26.1319 6.93873 26.4227 6.65531 26.7796 6.65531C26.9583 6.65531 27.1204 6.7266 27.2373 6.84094C27.3319 6.93336 27.485 6.93336 27.5797 6.84094C27.6737 6.74847 27.6737 6.59885 27.5797 6.50662C27.3747 6.30623 27.0922 6.18262 26.7796 6.18262C26.1553 6.18262 25.6489 6.67761 25.6489 7.28874C25.6489 7.81833 26.0307 8.26131 26.5394 8.36892C26.5387 8.37744 26.5379 8.38547 26.5379 8.39437V8.63059C26.5379 8.76174 27.0215 8.76174 27.0215 8.63059V8.39437C27.0215 8.38547 27.0208 8.37744 27.0204 8.36892C27.2359 8.32333 27.429 8.21751 27.5797 8.06987C27.6737 7.97814 27.6737 7.82834 27.5797 7.73623C27.485 7.64394 27.3319 7.64394 27.2373 7.73623Z" fill="#0069B3"/>
<mask id="mask1_1_3907" style="mask-type:alpha" maskUnits="userSpaceOnUse" x="36" y="6" width="3" height="3">
<path d="M38.3341 6.21289V8.50098H36.0459V6.21289H38.3341Z" fill="white"/>
</mask>
<g mask="url(#mask1_1_3907)">
<path fill-rule="evenodd" clip-rule="evenodd" d="M37.19 8.01154C36.8288 8.01154 36.5349 7.71815 36.5349 7.35722C36.5349 6.99584 36.8288 6.70195 37.19 6.70195C37.5513 6.70195 37.8449 6.99584 37.8449 7.35722C37.8449 7.71815 37.5513 8.01154 37.19 8.01154ZM37.19 6.21289C36.5589 6.21289 36.0459 6.72623 36.0459 7.35722C36.0459 7.98757 36.5589 8.50098 37.19 8.50098C37.8212 8.50098 38.3341 7.98757 38.3341 7.35722C38.3341 6.72623 37.8212 6.21289 37.19 6.21289Z" fill="#EE7D00"/>
</g>
<path fill-rule="evenodd" clip-rule="evenodd" d="M35.3703 7.28178C35.3703 6.93467 35.0904 6.65237 34.7453 6.65237C34.4005 6.65237 34.1209 6.93467 34.1209 7.28178C34.1209 7.62847 34.4005 7.91027 34.7453 7.91027C35.0904 7.91027 35.3703 7.62847 35.3703 7.28178ZM35.837 8.53919C35.837 9.14663 35.359 9.63836 34.7683 9.63836C34.2941 9.63836 34.3771 9.33599 34.3771 9.33599C34.3771 9.33599 34.415 9.15583 34.5992 9.15583C34.6436 9.15583 34.6881 9.16897 34.7683 9.16897C35.1009 9.16897 35.3703 8.88625 35.3703 8.53919L35.3704 8.18183C35.1936 8.30748 34.9777 8.3804 34.7453 8.3804C34.1432 8.3804 33.6538 7.88732 33.6538 7.28178C33.6538 6.6757 34.1432 6.18262 34.7453 6.18262C35.3473 6.18262 35.837 6.6757 35.837 7.28178V8.53919Z" fill="#EE7D00"/>
<path fill-rule="evenodd" clip-rule="evenodd" d="M18.3726 9.16842C18.7118 9.16842 18.9867 8.88625 18.9867 8.53919L18.9875 8.18183C18.8063 8.30662 18.6098 8.3804 18.3726 8.3804C17.7573 8.3804 17.2808 7.90641 17.2808 7.30038V6.41753C17.2808 6.28813 17.3872 6.18262 17.5194 6.18262C17.6506 6.18262 17.7573 6.28813 17.7573 6.41753V7.30038C17.7573 7.64744 18.0199 7.91027 18.3726 7.91027C18.7241 7.91027 18.9867 7.65155 18.9867 7.30462V6.41753C18.9867 6.28813 19.094 6.18262 19.2252 6.18262C19.3571 6.18262 19.464 6.28813 19.464 6.41753V8.53919C19.464 9.14595 18.9751 9.63836 18.3726 9.63836C17.8874 9.63836 17.9723 9.33599 17.9723 9.33599C17.9723 9.33599 18.0111 9.15516 18.1986 9.15516C18.2443 9.15516 18.2899 9.16842 18.3726 9.16842Z" fill="#0069B3"/>
</svg>
